<?xml version="1.0" encoding="UTF-8"?>
<svg xmlns="http://www.w3.org/2000/svg" xmlns:xlink="http://www.w3.org/1999/xlink" width="1152pt" height="768pt" viewBox="0 0 1152 768">
<defs>
<g>
<g id="glyph-0-0">
<path d="M 17.171875 -94 C 20.953125 -94.859375 23.859375 -95.15625 28.234375 -95.453125 C 46.84375 -96.609375 46.84375 -96.609375 61.6875 -97.78125 L 61.6875 -6.984375 C 61.6875 6.40625 61.109375 14.84375 59.953125 23.28125 L 87.296875 23.28125 C 85.84375 14.265625 85.546875 6.6875 85.546875 -6.6875 L 85.546875 -99.8125 C 96.03125 -100.984375 99.515625 -101.5625 108.25 -102.71875 C 109.703125 -97.1875 110.578125 -94.578125 112.328125 -87.015625 L 131.234375 -96.328125 C 124.25 -118.734375 120.1875 -128.90625 107.671875 -155.390625 L 90.796875 -147.25 C 96.609375 -135.3125 98.359375 -131.234375 101.265625 -123.09375 C 89.921875 -121.640625 83.8125 -121.0625 63.734375 -119.890625 C 75.375 -134.734375 91.671875 -157.71875 101.265625 -172.859375 C 116.40625 -196.71875 116.40625 -196.71875 119.3125 -200.203125 L 96.90625 -213.015625 C 92.25 -200.203125 86.71875 -190.3125 68.390625 -161.796875 C 61.109375 -170.53125 56.75 -175.765625 54.703125 -178.09375 C 64.3125 -192.0625 70.71875 -202.828125 77.40625 -215.921875 C 85.546875 -232.21875 85.546875 -232.21875 87.875 -236 L 63.140625 -246.1875 C 60.8125 -235.421875 52.09375 -216.796875 39 -194.96875 C 34.046875 -199.921875 33.171875 -201.078125 26.765625 -207.484375 L 13.390625 -187.109375 C 27.359375 -174.890625 41.609375 -158.890625 54.703125 -141.140625 C 47.140625 -130.65625 47.140625 -130.375 38.125 -119.015625 C 34.34375 -118.734375 31.421875 -118.734375 28.8125 -118.734375 C 21.53125 -118.734375 18.328125 -119.015625 13.96875 -119.59375 Z M 208.640625 -80.03125 L 208.640625 -87.875 C 208.640625 -101.84375 208.9375 -109.421875 210.109375 -116.6875 L 182.171875 -116.6875 C 183.625 -110.578125 183.90625 -103.015625 183.90625 -87.875 L 183.90625 -80.03125 L 161.5 -80.03125 C 148.125 -80.03125 140.84375 -80.3125 133.28125 -81.484375 L 133.28125 -55.875 C 142.296875 -56.75 150.453125 -57.03125 161.5 -57.03125 L 183.90625 -57.03125 L 183.90625 -11.34375 L 146.375 -11.34375 C 134.15625 -11.34375 126.875 -11.640625 118.734375 -12.796875 L 118.734375 13.671875 C 127.75 12.515625 136.765625 11.9375 149.578125 11.9375 L 247.9375 11.9375 C 260.734375 11.9375 269.46875 12.515625 278.484375 13.671875 L 278.484375 -12.796875 C 271.21875 -11.640625 263.359375 -11.34375 248.21875 -11.34375 L 208.640625 -11.34375 L 208.640625 -57.03125 L 237.75 -57.03125 C 248.8125 -57.03125 256.375 -56.75 265.390625 -55.875 L 265.390625 -81.765625 C 258.109375 -80.609375 249.96875 -80.03125 238.03125 -80.03125 Z M 252 -232.21875 C 246.1875 -231.34375 240.078125 -231.046875 229.015625 -231.046875 L 150.734375 -231.046875 C 136.1875 -231.046875 126.578125 -231.640625 120.1875 -232.515625 L 120.1875 -206.03125 C 125.71875 -206.90625 130.65625 -207.1875 138.21875 -207.484375 C 149.578125 -184.78125 160.046875 -169.9375 177.21875 -153.9375 C 160.921875 -143.46875 149.578125 -138.21875 125.71875 -130.078125 C 130.953125 -122.515625 134.15625 -116.40625 138.515625 -105.921875 C 164.703125 -116.984375 178.96875 -124.546875 197 -137.640625 C 217.953125 -122.796875 240.359375 -112.328125 270.34375 -102.71875 C 274.125 -114.9375 276.15625 -119.015625 282.265625 -128.90625 C 256.078125 -135.03125 237.171875 -142.296875 217.078125 -154.234375 C 227.5625 -163.828125 235.703125 -172.859375 243.859375 -183.328125 C 244.734375 -184.5 252.296875 -195.84375 267.140625 -217.375 Z M 230.765625 -207.484375 C 220.28125 -190.890625 211.84375 -181.296875 196.71875 -168.484375 C 181 -181.578125 173.4375 -190.609375 164.125 -207.484375 Z M 27.9375 -82.359375 C 26.484375 -45.6875 23.28125 -25.03125 14.84375 -1.75 L 37.25 7.5625 C 43.9375 -17.171875 47.71875 -43.0625 49.765625 -77.984375 Z M 96.328125 -78.859375 C 101.5625 -56.75 104.171875 -39.578125 105.046875 -16.296875 L 126.296875 -22.703125 C 122.796875 -51.5 119.3125 -69.84375 114.9375 -84.390625 Z M 96.328125 -78.859375 "/>
</g>
<g id="glyph-0-1">
<path d="M 68.390625 -23.28125 C 61.40625 -21.828125 59.953125 -21.53125 51.796875 -19.78125 L 51.796875 -87.875 C 51.796875 -103.890625 52.09375 -110.28125 53.546875 -117.265625 L 27.640625 -117.265625 C 28.8125 -108.828125 29.09375 -101.5625 29.09375 -87.296875 L 29.09375 -15.421875 C 20.65625 -13.96875 18.046875 -13.671875 11.0625 -13.09375 L 17.75 14.265625 C 27.0625 11.34375 29.390625 10.765625 48.3125 6.109375 C 78.859375 -1.15625 98.65625 -6.984375 128.625 -16.875 L 128.328125 -40.453125 C 112.03125 -34.921875 106.21875 -32.890625 91.953125 -29.09375 L 91.953125 -80.609375 L 100.390625 -80.609375 C 109.125 -80.609375 115.234375 -80.3125 121.34375 -79.4375 L 121.34375 -105.046875 C 116.40625 -103.890625 111.453125 -103.59375 100.390625 -103.59375 L 91.953125 -103.59375 L 91.953125 -141.421875 L 98.65625 -141.421875 C 117.265625 -141.140625 117.265625 -141.140625 123.390625 -140.546875 C 122.796875 -146.375 122.515625 -152.78125 122.515625 -163.828125 L 122.515625 -171.984375 C 129.203125 -165.578125 133.5625 -160.34375 137.640625 -152.78125 C 148.40625 -161.796875 152.78125 -165.875 160.046875 -173.4375 C 168.203125 -160.34375 175.46875 -150.734375 187.109375 -138.515625 C 165.578125 -120.46875 145.5 -108.546875 121.640625 -99.8125 C 127.453125 -92.53125 130.65625 -86.71875 134.15625 -76.53125 C 139.09375 -78.859375 140.546875 -79.734375 144.921875 -81.765625 C 145.5 -76.828125 145.5 -72.75 145.5 -64.015625 L 145.5 -4.359375 C 145.5 9.609375 145.203125 16.875 144.046875 24.734375 L 170.8125 24.734375 L 170.8125 10.1875 L 233.96875 10.1875 L 233.96875 24.4375 L 261.03125 24.4375 C 259.859375 16.59375 259.578125 7.859375 259.578125 -6.6875 L 259.578125 -64.3125 C 259.578125 -76.53125 259.578125 -80.03125 260.4375 -85.84375 C 263.359375 -84.390625 263.359375 -84.390625 275.875 -78.5625 C 278.78125 -88.75 282.5625 -97.1875 287.21875 -104.46875 C 257.25 -115.8125 242.109375 -123.671875 222.03125 -138.515625 C 238.328125 -155.6875 245.609375 -165.875 261.609375 -192.640625 C 264.8125 -197.59375 264.8125 -197.59375 269.46875 -205.453125 L 256.078125 -221.453125 C 250.265625 -220.28125 242.984375 -220 229.890625 -220 L 192.9375 -220 C 194.671875 -223.484375 194.671875 -223.484375 197.296875 -228.4375 C 201.375 -236.296875 201.375 -236.296875 203.703125 -240.953125 L 177.21875 -247.0625 C 168.78125 -220.28125 148.703125 -192.9375 122.515625 -173.4375 L 122.515625 -206.90625 C 122.515625 -220.28125 122.796875 -226.6875 123.671875 -235.703125 C 114.9375 -234.546875 107.09375 -234.25 94.859375 -234.25 L 55.578125 -234.25 C 43.9375 -234.25 35.796875 -234.546875 27.0625 -235.703125 C 27.9375 -226.6875 28.234375 -218.546875 28.234375 -206.90625 L 28.234375 -168.203125 C 28.234375 -156.5625 27.9375 -149.28125 27.0625 -140.265625 C 34.921875 -141.140625 42.1875 -141.421875 53.546875 -141.421875 L 68.390625 -141.421875 Z M 167.609375 -85.546875 C 160.34375 -85.546875 157.71875 -85.546875 152.484375 -85.84375 C 169.9375 -94.859375 188.28125 -107.375 204.578125 -121.640625 C 220.875 -107.96875 239.203125 -96.328125 259.578125 -86.140625 C 254.046875 -85.84375 248.21875 -85.546875 237.171875 -85.546875 Z M 235.703125 -198.171875 C 224.359375 -177.796875 217.078125 -167.90625 203.703125 -153.9375 C 190.890625 -166.453125 183.03125 -176.921875 175.1875 -191.484375 C 176.921875 -194.09375 177.515625 -194.96875 179.84375 -198.171875 Z M 52.671875 -211.5625 L 98.359375 -211.5625 L 98.359375 -163.546875 L 52.671875 -163.546875 Z M 170.8125 -62.5625 L 233.96875 -62.5625 L 233.96875 -12.796875 L 170.8125 -12.796875 Z M 170.8125 -62.5625 "/>
</g>
<g id="glyph-1-0">
<path d="M 4.765625 -56.765625 L 4.765625 0 L 9.78125 0 L 9.78125 -15.578125 L 17.890625 -22.34375 L 34.109375 0 L 40.390625 0 L 21.703125 -25.84375 L 39.1875 -41.015625 L 32.515625 -41.015625 L 9.78125 -21.140625 L 9.78125 -56.765625 Z M 4.765625 -56.765625 "/>
</g>
<g id="glyph-1-1">
<path d="M 34.265625 -23.375 L 7.71875 -23.375 C 7.925781 -25.226562 8.359375 -27.039062 9.015625 -28.8125 C 9.679688 -30.59375 10.570312 -32.15625 11.6875 -33.5 C 12.800781 -34.851562 14.148438 -35.941406 15.734375 -36.765625 C 17.328125 -37.585938 19.15625 -38 21.21875 -38 C 23.238281 -38 25.039062 -37.585938 26.625 -36.765625 C 28.21875 -35.941406 29.570312 -34.851562 30.6875 -33.5 C 31.800781 -32.15625 32.660156 -30.609375 33.265625 -28.859375 C 33.878906 -27.109375 34.210938 -25.28125 34.265625 -23.375 Z M 7.71875 -19.15625 L 39.265625 -19.15625 C 39.378906 -22.019531 39.117188 -24.84375 38.484375 -27.625 C 37.847656 -30.40625 36.800781 -32.867188 35.34375 -35.015625 C 33.882812 -37.160156 31.988281 -38.894531 29.65625 -40.21875 C 27.320312 -41.550781 24.507812 -42.21875 21.21875 -42.21875 C 17.988281 -42.21875 15.191406 -41.59375 12.828125 -40.34375 C 10.472656 -39.101562 8.550781 -37.460938 7.0625 -35.421875 C 5.582031 -33.378906 4.484375 -31.054688 3.765625 -28.453125 C 3.054688 -25.859375 2.703125 -23.210938 2.703125 -20.515625 C 2.703125 -17.597656 3.054688 -14.828125 3.765625 -12.203125 C 4.484375 -9.578125 5.582031 -7.269531 7.0625 -5.28125 C 8.550781 -3.300781 10.472656 -1.738281 12.828125 -0.59375 C 15.191406 0.539062 17.988281 1.109375 21.21875 1.109375 C 26.414062 1.109375 30.429688 -0.160156 33.265625 -2.703125 C 36.109375 -5.242188 38.054688 -8.847656 39.109375 -13.515625 L 34.109375 -13.515625 C 33.304688 -10.335938 31.875 -7.789062 29.8125 -5.875 C 27.75 -3.96875 24.882812 -3.015625 21.21875 -3.015625 C 18.84375 -3.015625 16.804688 -3.519531 15.109375 -4.53125 C 13.410156 -5.539062 12.003906 -6.8125 10.890625 -8.34375 C 9.773438 -9.882812 8.96875 -11.617188 8.46875 -13.546875 C 7.96875 -15.484375 7.71875 -17.351562 7.71875 -19.15625 Z M 7.71875 -19.15625 "/>
</g>
<g id="glyph-1-2">
<path d="M 4.84375 -56.765625 L 4.84375 -48.734375 L 9.859375 -48.734375 L 9.859375 -56.765625 Z M 4.84375 -41.015625 L 4.84375 0 L 9.859375 0 L 9.859375 -41.015625 Z M 4.84375 -41.015625 "/>
</g>
<g id="glyph-1-3">
<path d="M 4.765625 -41.015625 L 4.765625 0 L 9.78125 0 L 9.78125 -21.859375 C 9.78125 -24.035156 10.148438 -26.035156 10.890625 -27.859375 C 11.628906 -29.691406 12.675781 -31.269531 14.03125 -32.59375 C 15.382812 -33.914062 16.988281 -34.9375 18.84375 -35.65625 C 20.695312 -36.375 22.765625 -36.675781 25.046875 -36.5625 L 25.046875 -41.578125 C 21.335938 -41.734375 18.144531 -40.910156 15.46875 -39.109375 C 12.789062 -37.304688 10.816406 -34.738281 9.546875 -31.40625 L 9.375 -31.40625 L 9.375 -41.015625 Z M 4.765625 -41.015625 "/>
</g>
<g id="glyph-1-4">
<path d="M 22.09375 -38 C 24.476562 -38 26.570312 -37.492188 28.375 -36.484375 C 30.175781 -35.484375 31.671875 -34.160156 32.859375 -32.515625 C 34.054688 -30.867188 34.957031 -29 35.5625 -26.90625 C 36.175781 -24.8125 36.484375 -22.679688 36.484375 -20.515625 C 36.484375 -18.335938 36.175781 -16.203125 35.5625 -14.109375 C 34.957031 -12.015625 34.054688 -10.144531 32.859375 -8.5 C 31.671875 -6.863281 30.175781 -5.539062 28.375 -4.53125 C 26.570312 -3.519531 24.476562 -3.015625 22.09375 -3.015625 C 19.71875 -3.015625 17.628906 -3.519531 15.828125 -4.53125 C 14.023438 -5.539062 12.523438 -6.863281 11.328125 -8.5 C 10.140625 -10.144531 9.238281 -12.015625 8.625 -14.109375 C 8.019531 -16.203125 7.71875 -18.335938 7.71875 -20.515625 C 7.71875 -22.679688 8.019531 -24.8125 8.625 -26.90625 C 9.238281 -29 10.140625 -30.867188 11.328125 -32.515625 C 12.523438 -34.160156 14.023438 -35.484375 15.828125 -36.484375 C 17.628906 -37.492188 19.71875 -38 22.09375 -38 Z M 22.09375 -42.21875 C 18.96875 -42.21875 16.195312 -41.632812 13.78125 -40.46875 C 11.375 -39.300781 9.347656 -37.734375 7.703125 -35.765625 C 6.066406 -33.804688 4.820312 -31.515625 3.96875 -28.890625 C 3.125 -26.273438 2.703125 -23.484375 2.703125 -20.515625 C 2.703125 -17.546875 3.125 -14.75 3.96875 -12.125 C 4.820312 -9.5 6.066406 -7.207031 7.703125 -5.25 C 9.347656 -3.289062 11.375 -1.738281 13.78125 -0.59375 C 16.195312 0.539062 18.96875 1.109375 22.09375 1.109375 C 25.226562 1.109375 28 0.539062 30.40625 -0.59375 C 32.820312 -1.738281 34.847656 -3.289062 36.484375 -5.25 C 38.128906 -7.207031 39.375 -9.5 40.21875 -12.125 C 41.070312 -14.75 41.5 -17.546875 41.5 -20.515625 C 41.5 -23.484375 41.070312 -26.273438 40.21875 -28.890625 C 39.375 -31.515625 38.128906 -33.804688 36.484375 -35.765625 C 34.847656 -37.734375 32.820312 -39.300781 30.40625 -40.46875 C 28 -41.632812 25.226562 -42.21875 22.09375 -42.21875 Z M 22.09375 -42.21875 "/>
</g>
</g>
</defs>
<rect x="-115.2" y="-76.8" width="1382.4" height="921.6" fill="rgb(98.03772%, 97.253418%, 95.292664%)" fill-opacity="1"/>
<path fill="none" stroke-width="9" stroke-linecap="round" stroke-linejoin="round" stroke="rgb(89.4104%, 23.136902%, 18.431091%)" stroke-opacity="1" stroke-miterlimit="4" d="M 280.5 384 L 517.5 384 C 543 384 556.5 396.75 556.5 420 L 556.5 425.25 C 556.5 453.75 573 469.5 594.75 469.5 C 616.5 469.5 634.5 453.75 634.5 425.25 L 634.5 412.5 C 634.5 393.75 646.5 384 667.5 384 L 737.25 384 "/>
<g fill="rgb(9.411621%, 12.548828%, 15.293884%)" fill-opacity="1">
<use xlink:href="#glyph-0-0" x="268.5" y="466.498291"/>
</g>
<g fill="rgb(9.411621%, 12.548828%, 15.293884%)" fill-opacity="1">
<use xlink:href="#glyph-0-1" x="592.383" y="466.498291"/>
</g>
<path fill-rule="nonzero" fill="rgb(98.03772%, 97.253418%, 95.292664%)" fill-opacity="1" stroke-width="8.25" stroke-linecap="butt" stroke-linejoin="miter" stroke="rgb(89.4104%, 23.136902%, 18.431091%)" stroke-opacity="1" stroke-miterlimit="4" d="M 294.75 384 C 294.75 391.871094 288.371094 398.25 280.5 398.25 C 272.628906 398.25 266.25 391.871094 266.25 384 C 266.25 376.128906 272.628906 369.75 280.5 369.75 C 288.371094 369.75 294.75 376.128906 294.75 384 Z M 294.75 384 "/>
<path fill-rule="nonzero" fill="rgb(98.03772%, 97.253418%, 95.292664%)" fill-opacity="1" stroke-width="8.25" stroke-linecap="butt" stroke-linejoin="miter" stroke="rgb(89.4104%, 23.136902%, 18.431091%)" stroke-opacity="1" stroke-miterlimit="4" d="M 751.5 384 C 751.5 391.871094 745.121094 398.25 737.25 398.25 C 729.378906 398.25 723 391.871094 723 384 C 723 376.128906 729.378906 369.75 737.25 369.75 C 745.121094 369.75 751.5 376.128906 751.5 384 Z M 751.5 384 "/>
<g fill="rgb(9.411621%, 12.548828%, 15.293884%)" fill-opacity="1">
<use xlink:href="#glyph-1-0" x="437.234375" y="573.001465"/>
</g>
<g fill="rgb(9.411621%, 12.548828%, 15.293884%)" fill-opacity="1">
<use xlink:href="#glyph-1-1" x="505.445375" y="573.001465"/>
</g>
<g fill="rgb(9.411621%, 12.548828%, 15.293884%)" fill-opacity="1">
<use xlink:href="#glyph-1-2" x="575.246375" y="573.001465"/>
</g>
<g fill="rgb(9.411621%, 12.548828%, 15.293884%)" fill-opacity="1">
<use xlink:href="#glyph-1-3" x="618.414875" y="573.001465"/>
</g>
<g fill="rgb(9.411621%, 12.548828%, 15.293884%)" fill-opacity="1">
<use xlink:href="#glyph-1-4" x="670.566875" y="573.001465"/>
</g>
</svg>
